<svg width="176" height="200" viewBox="0 0 176 200" fill="none" xmlns="http://www.w3.org/2000/svg">
<path d="M156.75 0H19.25C9.25 0 0.5 8.75 0.5 18.75V181.25C0.5 191.25 9.25 200 19.25 200H156.75C166.75 200 175.5 191.25 175.5 181.25V18.75C175.5 8.75 166.75 0 156.75 0ZM50.5 170C50.5 172.5 48 175 45.5 175H30.5C28 175 25.5 172.5 25.5 170V155C25.5 152.5 28 150 30.5 150H45.5C48 150 50.5 152.5 50.5 155V170ZM50.5 120C50.5 122.5 48 125 45.5 125H30.5C28 125 25.5 122.5 25.5 120V105C25.5 102.5 28 100 30.5 100H45.5C48 100 50.5 102.5 50.5 105V120ZM100.5 170C100.5 172.5 98 175 95.5 175H80.5C78 175 75.5 172.5 75.5 170V155C75.5 152.5 78 150 80.5 150H95.5C98 150 100.5 152.5 100.5 155V170ZM100.5 120C100.5 122.5 98 125 95.5 125H80.5C78 125 75.5 122.5 75.5 120V105C75.5 102.5 78 100 80.5 100H95.5C98 100 100.5 102.5 100.5 105V120ZM150.5 170C150.5 172.5 148 175 145.5 175H130.5C128 175 125.5 172.5 125.5 170V105C125.5 102.5 128 100 130.5 100H145.5C148 100 150.5 102.5 150.5 105V170ZM150.5 70C150.5 72.5 148 75 145.5 75H30.5C28 75 25.5 72.5 25.5 70V30C25.5 27.5 28 25 30.5 25H145.5C148 25 150.5 27.5 150.5 30V70Z" fill="#31EA4D"/>
</svg>
