<svg width="106" height="106" viewBox="0 0 106 106" fill="none" xmlns="http://www.w3.org/2000/svg">
<rect x="0.5" y="0.5" width="49" height="49" rx="11.5" stroke="black" stroke-opacity="0.5"/>
<rect x="7" y="21" width="36" height="8" rx="4" fill="#FF9431"/>
<rect x="56.5" y="0.5" width="49" height="49" rx="11.5" stroke="black" stroke-opacity="0.5"/>
<rect x="77" y="43" width="36" height="8" rx="4" transform="rotate(-90 77 43)" fill="#FF9431"/>
<rect x="63" y="21" width="36" height="8" rx="4" fill="#FF9431"/>
<rect x="0.5" y="56.5" width="49" height="49" rx="11.5" stroke="black" stroke-opacity="0.5"/>
<rect x="9" y="90.4558" width="36" height="8" rx="4" transform="rotate(-45 9 90.4558)" fill="#FF9431"/>
<rect x="15" y="65.4558" width="36" height="8" rx="4" transform="rotate(45 15 65.4558)" fill="#FF9431"/>
<rect x="56.5" y="56.5" width="49" height="49" rx="11.5" stroke="black" stroke-opacity="0.5"/>
<rect x="65" y="90.4558" width="36" height="8" rx="4" transform="rotate(-45 65 90.4558)" fill="#FF9431"/>
</svg>
